<svg viewBox="0 0 350 350"  xmlns="http://www.w3.org/2000/svg">
<path  d="M297.937 190.181C298.015 190.124 298.119 190.208 298.09 190.301C247.462 354.942 66.1565 307.693 23.6823 231.24C-18.8177 154.74 10.2379 93.2465 16.6823 81.8212C39.1823 41.9308 56.2932 32.8796 83.1823 18.24C95.7932 12.8796 107.182 7.23999 123.1 5.8417C134.757 2.76846 140.89 -1.31967 149.957 2.62828C150.042 2.66544 150.037 2.7906 149.947 2.81774C146.555 3.85177 145.12 5.40165 146.118 8.4264C147.141 10.4943 161.974 1.1893 178.342 13.5958C179.362 14.3686 182.434 18.7653 192.153 19.2822C202.226 19.818 204.364 26.8186 203.45 32.4623C203.435 32.5533 203.312 32.5699 203.264 32.4916C197.676 23.4869 191.59 27.5534 185.503 27.5534C180.317 27.5534 178.854 21.35 163.923 25.9055C163.923 25.9055 183.203 28.9822 181.843 41.7747C181.835 41.8465 181.753 41.8886 181.691 41.8527C175.614 38.3699 170.091 41.9626 172.098 47.5943C172.104 47.6091 172.113 47.6229 172.124 47.6337C179.766 54.7971 201.01 45.1607 203.27 61.7922C203.283 61.8865 203.169 61.9535 203.101 61.8876C197.385 56.4065 185.375 56.4931 182.848 63.6427C205.354 73.9817 210.981 64.6765 223.768 69.846C235.984 77.5625 241.616 87.8385 238.646 96.5988C238.624 96.6625 238.546 96.6864 238.492 96.6466C232.915 92.5517 228.328 89.5304 221.722 95.6935C230.858 100.31 236.469 105.945 233.556 120.681C233.536 120.779 233.397 120.79 233.361 120.697C228.288 107.541 223.206 104.99 217.119 103.965C219.15 109.096 218.156 122.379 213.138 125.101C213.081 125.132 213.015 125.112 212.999 125.05C212.556 123.32 206.683 101.586 189.498 94.1426C171.663 86.418 197.991 100.753 184.033 113.128C183.971 113.183 183.865 113.148 183.861 113.065C183.218 101.73 171.488 88.0044 153.693 98.7952C156.703 99.3023 158.237 100.307 159.26 105.713C159.278 105.809 159.16 105.875 159.087 105.809C155.962 102.925 150.3 102.83 147.555 104.481C126.072 117.405 111.75 179.439 162.9 216.142C212.444 251.693 292.933 193.847 297.937 190.181Z" fill="#75f5dc" stroke="#75f5dc"/>
</svg>
